<svg xmlns="http://www.w3.org/2000/svg" width="14" height="16" fill="none"><path fill="url(#a)" d="m7.872 10.457.236 1.2.236-1.2c.435-2.216 2.137-3.948 4.315-4.392l1.178-.24-1.178-.24c-2.178-.443-3.88-2.175-4.315-4.39l-.236-1.2-.236 1.2c-.435 2.215-2.137 3.947-4.314 4.39l-1.18.24 1.18.24c2.177.444 3.879 2.176 4.314 4.391Z"/><path fill="url(#b)" d="m3.012 14.897.13.658.129-.658a3.043 3.043 0 0 1 2.365-2.408l.647-.131-.647-.132A3.043 3.043 0 0 1 3.271 9.82l-.13-.658-.129.658a3.043 3.043 0 0 1-2.366 2.407L0 12.358l.646.131a3.043 3.043 0 0 1 2.366 2.408Z"/><defs><linearGradient id="a" x1="9.698" x2="5.462" y1="3.369" y2="12.336" gradientUnits="userSpaceOnUse"><stop stop-color="#5BF0A5"/><stop offset=".265" stop-color="#5BF0A5"/><stop offset=".615" stop-color="#00BF5F"/><stop offset="1" stop-color="#009D4E"/></linearGradient><linearGradient id="b" x1="4.013" x2="1.691" y1="11.011" y2="15.927" gradientUnits="userSpaceOnUse"><stop stop-color="#5BF0A5"/><stop offset=".265" stop-color="#5BF0A5"/><stop offset=".615" stop-color="#00BF5F"/><stop offset="1" stop-color="#009D4E"/></linearGradient></defs></svg>